<svg id="Layer_1" data-name="Layer 1" xmlns="http://www.w3.org/2000/svg" xmlns:xlink="http://www.w3.org/1999/xlink" viewBox="0 0 642.89 292.59"><defs><style>.cls-1{fill:url(#linear-gradient);}.cls-2{fill:url(#linear-gradient-2);}</style><linearGradient id="linear-gradient" x1="119.18" y1="271.91" x2="119.18" y2="28.49" gradientUnits="userSpaceOnUse"><stop offset="0" stop-color="#663f95"/><stop offset="1" stop-color="#ea6425"/></linearGradient><linearGradient id="linear-gradient-2" x1="302.95" y1="249.7" x2="518.19" y2="34.46" gradientTransform="translate(0 7.14)" gradientUnits="userSpaceOnUse"><stop offset="0" stop-color="#663f95"/><stop offset="0.18" stop-color="#784585"/><stop offset="0.55" stop-color="#a8535d"/><stop offset="1" stop-color="#ea6725"/></linearGradient></defs><path class="cls-1" d="M108.06,271.91h0a5.45,5.45,0,0,1-5.45-5.47v-41c0-9.35,6.52-14.16,9.74-15.95L186.69,168a5.67,5.67,0,0,0,2.76-4.61,6.21,6.21,0,0,0-2.4-5.28L165.54,142l-77.28,43v62.48a5.47,5.47,0,1,1-10.93,0V191.17l-12.79,7.12c-6.64,3.64-13.79,3.92-19.11.76C40.62,196.2,38,191,38,184.5V66.5c0-7,3.36-12.88,9-15.69s12.51-2,18.25,2.31l12.13,9.1V45.82c0-7,3.35-12.86,9-15.68s12.5-2,18.24,2.32l89.11,66.7a17.14,17.14,0,0,1,6.7,14.66,16.75,16.75,0,0,1-8.23,13.41l-16.13,9,17.66,13.23a17.15,17.15,0,0,1,6.7,14.66,16.78,16.78,0,0,1-8.23,13.42L117.65,219a8.65,8.65,0,0,0-4.16,7.32l0,40.14A5.45,5.45,0,0,1,108.06,271.91ZM54,60.09a4.87,4.87,0,0,0-2.14.49c-1.87.94-2.94,3.09-2.94,5.92v118c0,1.78.36,4.12,2.09,5.15s5,.78,8-.78l18.34-10.21V75.88l-18.68-14A8,8,0,0,0,54,60.09Zm34.27,24v88.49L156,134.86Zm0-13.66,5.46,4.1L166.43,129l20.27-11.29a5.67,5.67,0,0,0,2.75-4.6,6.23,6.23,0,0,0-2.4-5.29L98,41.21c-2.39-1.79-4.87-2.26-6.8-1.29s-2.94,3.09-2.94,5.9Z"/><path class="cls-2" d="M286.85,97.54c-30,0-32.32,19.15-32.32,25v85.15a1.7,1.7,0,0,0,.69,1.37v0l10.28,7.69a1.52,1.52,0,0,0,1,.35A1.56,1.56,0,0,0,268,215.6V175.66l.72.22a59.29,59.29,0,0,0,16.68,2.36c16.42,0,36-6.85,36-39.48C321.4,102.9,299.75,97.54,286.85,97.54Zm-1.43,68.8a46.81,46.81,0,0,1-17-3.22L268,163V121.61c0-8.29,6.33-12.48,18.83-12.48,18.67,0,21.06,15.83,21.06,29.63C307.91,163,297.1,166.34,285.42,166.34ZM412.22,97.7c-16.78,0-36.77,7-36.77,40.27s20,40.27,36.77,40.27S449,171.25,449,138,429,97.7,412.22,97.7Zm0,68.8c-12.09,0-23.28-3.46-23.28-28.53s11.19-28.52,23.28-28.52S435.5,112.9,435.5,138,424.31,166.5,412.22,166.5ZM557.1,97.7c-16.77,0-36.77,7-36.77,40.27s20,40.27,36.77,40.27,36.77-7,36.77-40.27S573.88,97.7,557.1,97.7Zm0,68.8C545,166.5,533.82,163,533.82,138S545,109.45,557.1,109.45s23.28,3.45,23.28,28.52S569.19,166.5,557.1,166.5ZM334.9,104.91a1.4,1.4,0,0,0-.94,1.31v69A1.74,1.74,0,0,0,335.7,177h11.76V114.26a1.22,1.22,0,0,1,.93-1.27,105.19,105.19,0,0,1,23.06-3.22V97.55a101.84,101.84,0,0,0-36.54,7.35Zm121.87,4.51a1.79,1.79,0,0,0,1.68,1.77h38.31l-40.07,52.06a4.52,4.52,0,0,0-.87,2.65V177h57.82V166.2a1.78,1.78,0,0,0-1.68-1.77h-39.1l39.85-51.82a4.51,4.51,0,0,0,.93-2.74V98.81H456.77Z"/></svg>